<?xml version="1.0" encoding="UTF-8" standalone="no"?>
<svg
   xmlns:dc="http://purl.org/dc/elements/1.1/"
   xmlns:cc="http://creativecommons.org/ns#"
   xmlns:rdf="http://www.w3.org/1999/02/22-rdf-syntax-ns#"
   xmlns:svg="http://www.w3.org/2000/svg"
   xmlns="http://www.w3.org/2000/svg"
   id="svg8472"
   version="1.1"
   viewBox="0 0 210 297"
   height="297mm"
   width="210mm">
  <defs
     id="defs8466">
    <clipPath
       id="clipPath4310"
       clipPathUnits="userSpaceOnUse">
      <path
         id="path4308"
         d="m 228.909,182.357 h 47.449 v -45.564 h -47.449 z" />
    </clipPath>
    <clipPath
       id="clipPath4290"
       clipPathUnits="userSpaceOnUse">
      <path
         id="path4288"
         d="m 212.817,162.854 h 79.632 V 84.71 h -79.632 z" />
    </clipPath>
    <clipPath
       id="clipPath4270"
       clipPathUnits="userSpaceOnUse">
      <path
         id="path4268"
         d="m 243.204,51.7461 h 18.859 V 36.5547 h -18.859 z" />
    </clipPath>
    <clipPath
       id="clipPath4310-3"
       clipPathUnits="userSpaceOnUse">
      <path
         id="path4308-6"
         d="m 228.909,182.357 h 47.449 v -45.564 h -47.449 z" />
    </clipPath>
    <clipPath
       id="clipPath4290-7"
       clipPathUnits="userSpaceOnUse">
      <path
         id="path4288-5"
         d="m 212.817,162.854 h 79.632 V 84.71 h -79.632 z" />
    </clipPath>
    <clipPath
       id="clipPath4270-3"
       clipPathUnits="userSpaceOnUse">
      <path
         id="path4268-5"
         d="m 243.204,51.7461 h 18.859 V 36.5547 h -18.859 z" />
    </clipPath>
    <clipPath
       id="clipPath9407"
       clipPathUnits="userSpaceOnUse">
      <path
         id="path9405"
         d="m 228.909,182.357 h 47.449 v -45.564 h -47.449 z" />
    </clipPath>
    <clipPath
       id="clipPath9387"
       clipPathUnits="userSpaceOnUse">
      <path
         id="path9385"
         d="m 212.817,162.854 h 79.632 V 84.71 h -79.632 z" />
    </clipPath>
    <clipPath
       id="clipPath9367"
       clipPathUnits="userSpaceOnUse">
      <path
         id="path9365"
         d="m 243.204,51.7461 h 18.859 V 36.5547 h -18.859 z" />
    </clipPath>
  </defs>
  <metadata
     id="metadata8469">
    <rdf:RDF>
      <cc:Work
         rdf:about="">
        <dc:format>image/svg+xml</dc:format>
        <dc:type
           rdf:resource="http://purl.org/dc/dcmitype/StillImage" />
        <dc:title></dc:title>
      </cc:Work>
    </rdf:RDF>
  </metadata>
  <g
     id="layer1">
    <rect
       style="stroke-width:0.48191854"
       y="0.37743348"
       x="-2.9854572"
       height="300.89011"
       width="215.4731"
       id="rect15531" />
    <g
       transform="translate(67.553191,2.5332447)"
       id="g15529">
      <g
         id="g9377"
         transform="matrix(0.35277777,0,0,-0.35277777,55.555692,164.1826)">
        <path
           d="M 0,0 -68.12,123.396 -136.238,0 -115.662,11.032 -113.214,0 h 0.192 L -101.51,11.032 -89.999,0 -78.485,11.032 -68.119,1.097 -57.751,11.032 -46.238,0 -34.727,11.032 -23.215,0 h 0.194 l 2.445,11.032 z"
           style="fill:#142626;fill-opacity:1;fill-rule:nonzero;stroke:none"
           id="path9379" />
      </g>
      <g
         id="g15469">
        <path
           id="path9359"
           style="fill:#142626;fill-opacity:1;fill-rule:evenodd;stroke:none;stroke-width:0.35277775"
           d="m 34.851202,167.92628 h -6.653389 v -8.07861 h 6.653389 z" />
        <g
           id="g9361"
           transform="matrix(0.35277777,0,0,-0.35277777,-57.5988,178.10251)">
          <g
             id="g9363" />
          <g
             id="g9375">
            <g
               style="opacity:0.5"
               id="g9373"
               clip-path="url(#clipPath9367)">
              <g
                 id="g9371"
                 transform="translate(243.2036,45.6846)">
                <path
                   id="path9369"
                   style="fill:#49a88c;fill-opacity:1;fill-rule:nonzero;stroke:none"
                   d="m 0,0 9.525,-9.13 9.335,8.945 V 6.062 H 0 Z" />
              </g>
            </g>
          </g>
        </g>
        <g
           id="g9381"
           transform="matrix(0.35277777,0,0,-0.35277777,-57.5988,178.10251)">
          <g
             id="g9383" />
          <g
             id="g9395">
            <g
               style="opacity:0.5"
               id="g9393"
               clip-path="url(#clipPath9387)">
              <g
                 id="g9391"
                 transform="translate(252.6328,162.8545)">
                <path
                   id="path9389"
                   style="fill:#49a88c;fill-opacity:1;fill-rule:nonzero;stroke:none"
                   d="m 0,0 -39.816,-72.127 4.194,2.249 1.834,-8.267 h 0.144 l 8.626,8.267 8.625,-8.267 8.627,8.267 7.767,-7.444 7.769,7.444 8.626,-8.267 8.625,8.267 8.625,-8.267 h 0.146 l 1.832,8.267 4.192,-2.248 z" />
              </g>
            </g>
          </g>
        </g>
        <g
           transform="matrix(0.35277777,0,0,-0.35277777,49.530566,146.38835)"
           id="g9397">
          <path
             id="path9399"
             style="fill:#244647;fill-opacity:1;fill-rule:nonzero;stroke:none"
             d="M 0,0 -51.041,92.459 -102.08,0 -86.663,8.267 -84.829,0 h 0.144 l 8.626,8.267 8.625,-8.267 8.627,8.267 7.767,-7.445 7.769,7.445 L -34.646,0 -26.02,8.267 -17.395,0 h 0.146 l 1.832,8.267 z" />
        </g>
        <g
           id="g9401"
           transform="matrix(0.35277777,0,0,-0.35277777,-57.5988,178.10251)">
          <g
             id="g9403" />
          <g
             id="g9415">
            <g
               style="opacity:0.5"
               id="g9413"
               clip-path="url(#clipPath9407)">
              <g
                 id="g9411"
                 transform="translate(252.6328,182.3574)">
                <path
                   id="path9409"
                   style="fill:#49a88c;fill-opacity:1;fill-rule:nonzero;stroke:none"
                   d="m 0,0 -23.724,-42.977 0.575,-2.587 h 0.098 l 5.91,5.664 5.91,-5.664 5.91,5.664 5.322,-5.101 5.322,5.101 5.91,-5.664 5.911,5.664 5.909,-5.664 h 0.099 l 0.574,2.585 z" />
              </g>
            </g>
          </g>
        </g>
        <g
           transform="matrix(0.35277777,0,0,-0.35277777,43.86132,128.56411)"
           id="g9417">
          <path
             id="path9419"
             style="fill:#246b59;fill-opacity:1;fill-rule:nonzero;stroke:none"
             d="M 0,0 -34.971,63.348 -69.939,0 -59.376,5.664 -58.12,0 h 0.099 l 5.909,5.664 5.91,-5.664 5.91,5.664 5.322,-5.101 5.323,5.101 5.91,-5.664 5.91,5.664 L -11.918,0 h 0.1 l 1.255,5.664 z" />
        </g>
        <g
           transform="matrix(0.35277777,0,0,-0.35277777,30.472312,110.02776)"
           id="g9421">
          <path
             id="path9423"
             style="fill:#49a88c;fill-opacity:1;fill-rule:nonzero;stroke:none"
             d="m 0,0 -25.277,-44.547 5.922,3.667 0.584,-6.667 z" />
        </g>
        <g
           transform="matrix(0.35277777,0,0,-0.35277777,24.750186,130.36864)"
           id="g9425">
          <path
             id="path9427"
             style="fill:#49a88c;fill-opacity:1;fill-rule:nonzero;stroke:none"
             d="m 0,0 -22.328,-35.501 8.775,5.026 0.575,-9.33 z" />
        </g>
        <g
           transform="matrix(0.35277777,0,0,-0.35277777,10.746036,160.93765)"
           id="g9429">
          <path
             id="path9431"
             style="fill:#49a88c;fill-opacity:1;fill-rule:nonzero;stroke:none"
             d="m 0,0 15.85,9.903 0.464,-12.61 8.801,36.924 z" />
        </g>
        <g
           transform="matrix(0.35277777,0,0,-0.35277777,31.524083,99.566733)"
           id="g9433">
          <path
             id="path9435"
             style="fill:#f97432;fill-opacity:1;fill-rule:evenodd;stroke:none"
             d="m 0,0 4.998,-10.125 11.175,-1.625 -8.087,-7.881 1.909,-11.13 -9.995,5.255 -9.994,-5.255 1.909,11.13 -8.085,7.881 11.173,1.625 z" />
        </g>
        <g
           transform="matrix(0.35277777,0,0,-0.35277777,27.998563,110.41842)"
           id="g9437">
          <path
             id="path9439"
             style="fill:#f7cb5b;fill-opacity:1;fill-rule:evenodd;stroke:none"
             d="M 0,0 10.271,15.382 9.994,30.761 4.997,20.636 -6.177,19.011 1.908,11.13 Z" />
        </g>
        <g
           transform="matrix(0.35277777,0,0,-0.35277777,31.524435,128.33259)"
           id="g9441">
          <path
             id="path9443"
             style="fill:#f7cb5b;fill-opacity:1;fill-rule:evenodd;stroke:none"
             d="M 0,0 1.771,-3.589 5.731,-4.165 2.866,-6.958 3.542,-10.902 0,-9.041 l -3.542,-1.861 0.676,3.944 -2.865,2.793 3.96,0.576 z" />
        </g>
        <g
           transform="matrix(0.35277777,0,0,-0.35277777,19.605946,146.2471)"
           id="g9445">
          <path
             id="path9447"
             style="fill:#f7cb5b;fill-opacity:1;fill-rule:evenodd;stroke:none"
             d="M 0,0 1.771,-3.589 5.731,-4.165 2.866,-6.958 3.542,-10.902 0,-9.041 l -3.543,-1.861 0.677,3.944 -2.866,2.793 3.961,0.576 z" />
        </g>
        <g
           transform="matrix(0.35277777,0,0,-0.35277777,43.462718,146.2471)"
           id="g9449">
          <path
             id="path9451"
             style="fill:#f7cb5b;fill-opacity:1;fill-rule:evenodd;stroke:none"
             d="M 0,0 1.771,-3.589 5.73,-4.165 2.865,-6.958 3.541,-10.902 0,-9.041 l -3.543,-1.861 0.676,3.944 -2.865,2.793 3.961,0.576 z" />
        </g>
        <g
           transform="matrix(0.35277777,0,0,-0.35277777,39.267307,164.02618)"
           id="g9453">
          <path
             id="path9455"
             style="fill:#f7cb5b;fill-opacity:1;fill-rule:evenodd;stroke:none"
             d="M 0,0 1.088,-2.203 3.519,-2.557 1.76,-4.271 2.174,-6.693 0,-5.551 l -2.175,-1.142 0.415,2.422 -1.76,1.714 2.433,0.354 z" />
        </g>
        <g
           transform="matrix(0.35277777,0,0,-0.35277777,31.592981,164.02618)"
           id="g9457">
          <path
             id="path9459"
             style="fill:#f7cb5b;fill-opacity:1;fill-rule:evenodd;stroke:none"
             d="M 0,0 1.088,-2.203 3.519,-2.557 1.76,-4.271 2.174,-6.693 0,-5.551 l -2.175,-1.142 0.415,2.422 -1.759,1.714 2.432,0.354 z" />
        </g>
        <g
           transform="matrix(0.35277777,0,0,-0.35277777,23.796239,163.96247)"
           id="g9461">
          <path
             id="path9463"
             style="fill:#f7cb5b;fill-opacity:1;fill-rule:evenodd;stroke:none"
             d="M 0,0 1.087,-2.203 3.518,-2.557 1.759,-4.271 2.174,-6.693 0,-5.551 l -2.175,-1.142 0.415,2.422 -1.76,1.714 2.433,0.354 z" />
        </g>
        <g
           transform="matrix(0.35277777,0,0,-0.35277777,24.557781,129.84498)"
           id="g9465">
          <path
             id="path9467"
             style="fill:#f97432;fill-opacity:1;fill-rule:evenodd;stroke:none"
             d="m 0,0 c 0,-2.002 -1.624,-3.625 -3.626,-3.625 -2.002,0 -3.626,1.623 -3.626,3.625 0,2.003 1.624,3.626 3.626,3.626 C -1.624,3.626 0,2.003 0,0" />
        </g>
        <g
           transform="matrix(0.35277777,0,0,-0.35277777,41.1359,129.75506)"
           id="g9469">
          <path
             id="path9471"
             style="fill:#f97432;fill-opacity:1;fill-rule:evenodd;stroke:none"
             d="m 0,0 c 0,-2.002 -1.623,-3.625 -3.626,-3.625 -2.003,0 -3.626,1.623 -3.626,3.625 0,2.003 1.623,3.626 3.626,3.626 C -1.623,3.626 0,2.003 0,0" />
        </g>
        <g
           transform="matrix(0.35277777,0,0,-0.35277777,34.195422,148.87364)"
           id="g9473">
          <path
             id="path9475"
             style="fill:#f97432;fill-opacity:1;fill-rule:evenodd;stroke:none"
             d="m 0,0 c 0,-4.181 -3.389,-7.57 -7.571,-7.57 -4.182,0 -7.572,3.389 -7.572,7.57 0,4.182 3.39,7.571 7.572,7.571 C -3.389,7.571 0,4.182 0,0" />
        </g>
        <g
           transform="matrix(0.35277777,0,0,-0.35277777,16.613542,165.34014)"
           id="g9477">
          <path
             id="path9479"
             style="fill:#f97432;fill-opacity:1;fill-rule:evenodd;stroke:none"
             d="m 0,0 c 0,-1.787 -1.449,-3.236 -3.237,-3.236 -1.788,0 -3.237,1.449 -3.237,3.236 0,1.787 1.449,3.236 3.237,3.236 C -1.449,3.236 0,1.787 0,0" />
        </g>
        <g
           transform="matrix(0.35277777,0,0,-0.35277777,48.350982,165.29124)"
           id="g9481">
          <path
             id="path9483"
             style="fill:#f97432;fill-opacity:1;fill-rule:evenodd;stroke:none"
             d="m 0,0 c 0,-1.787 -1.448,-3.236 -3.237,-3.236 -1.787,0 -3.237,1.449 -3.237,3.236 0,1.787 1.45,3.236 3.237,3.236 C -1.448,3.236 0,1.787 0,0" />
        </g>
      </g>
    </g>
    <rect
       style="fill:#f9f9f9;stroke-width:0.22986592"
       y="169.42145"
       x="-2.9854572"
       height="131.8461"
       width="215.4731"
       id="rect15535" />
    <rect
       y="207.83434"
       x="75.631592"
       height="28.660391"
       width="11.94183"
       id="rect15537"
       style="fill:#f9f9f9;stroke-width:0.26458332" />
  </g>
  <g
     id="layer2" />
</svg>
